0
SECTION
2
HEADER
0
ENDSEC
0
SECTION
2
ENTITIES
0
TEXT
8
A-TEXT
1

10
0
20
0
0
TEXT
8
A-TEXT
1
Level 1
10
0
20
0
0
LINE
8
A-GRID
10
0
20
-2
11
0
21
8
0
TEXT
8
A-GRID
1
A
10
0
20
0
0
TEXT
8
A-TEXT
1
Main Space
10
0
20
0
0
LWPOLYLINE
8
A-WALL
90
5
10
0
20
0
10
4
20
0
10
4
20
0.2
10
0
20
0.2
10
0
20
0
0
LWPOLYLINE
8
S-STRUCT
90
2
10
0
20
0
10
0.3
20
0.3
0
LWPOLYLINE
8
S-STRUCT
90
2
10
0
20
0
10
0.3
20
0.3
0
LINE
8
A-DIMS
10
0
20
0
11
4
21
0
0
LINE
8
A-DIMS
10
0
20
0
11
4
21
0
0
LINE
8
A-DIMS
10
0
20
0
11
4
21
0
0
ENDSEC
0
EOF
