0
SECTION
2
HEADER
9
$ACADVER
1
AC1009
0
ENDSEC
0
SECTION
2
TABLES
0
TABLE
2
LTYPE
70
1
0
LTYPE
2
CONTINUOUS
70
0
3
Solid line
72
65
73
0
40
0.0
0
ENDTAB
0
TABLE
2
LAYER
70
6
0
LAYER
2
A-WALL
70
0
62
7
6
CONTINUOUS
0
LAYER
2
A-DOOR
70
0
62
3
6
CONTINUOUS
0
LAYER
2
S-STRUCT
70
0
62
1
6
CONTINUOUS
0
LAYER
2
A-DIMS
70
0
62
2
6
CONTINUOUS
0
LAYER
2
A-TEXT
70
0
62
7
6
CONTINUOUS
0
LAYER
2
A-GRID
70
0
62
8
6
CONTINUOUS
0
ENDTAB
0
TABLE
2
STYLE
70
1
0
STYLE
2
STANDARD
70
0
40
0
41
1
50
0
71
0
42
2.5
3
txt.shx
4

0
ENDTAB
0
TABLE
2
APPID
70
1
0
APPID
2
AIAS
70
0
0
ENDTAB
0
ENDSEC
0
SECTION
2
BLOCKS
0
ENDSEC
0
SECTION
2
ENTITIES
0
TEXT
8
A-TEXT
10
0
20
0
30
0
40
2.5
1
cad-0001
7
STANDARD
1001
AIAS
1000
cad-0001
0
TEXT
8
A-TEXT
10
0
20
0
30
0
40
2.5
1
Level 1
7
STANDARD
1001
AIAS
1000
cad-0002
0
LINE
8
A-GRID
10
0
20
-2
30
0
11
0
21
8
31
0
1001
AIAS
1000
cad-0003
0
TEXT
8
A-GRID
10
0
20
0
30
0
40
2.5
1
A
7
STANDARD
1001
AIAS
1000
cad-0004
0
TEXT
8
A-TEXT
10
0
20
0
30
0
40
2.5
1
Main Space
7
STANDARD
1001
AIAS
1000
cad-0005
0
POLYLINE
8
A-WALL
66
1
70
1
1001
AIAS
1000
cad-0006
0
VERTEX
8
A-WALL
10
0
20
0
30
0
0
VERTEX
8
A-WALL
10
4
20
0
30
0
0
VERTEX
8
A-WALL
10
4
20
0.2
30
0
0
VERTEX
8
A-WALL
10
0
20
0.2
30
0
0
VERTEX
8
A-WALL
10
0
20
0
30
0
0
SEQEND
0
TEXT
8
A-DOOR
10
0
20
0
30
0
40
2.5
1
DOOR_SINGLE
7
STANDARD
1001
AIAS
1000
cad-0007
0
TEXT
8
A-DOOR
10
0
20
0
30
0
40
2.5
1
WINDOW
7
STANDARD
1001
AIAS
1000
cad-0008
0
POLYLINE
8
S-STRUCT
66
1
70
1
1001
AIAS
1000
cad-0009
0
VERTEX
8
S-STRUCT
10
0
20
0
30
0
0
VERTEX
8
S-STRUCT
10
0.3
20
0.3
30
0
0
SEQEND
0
POLYLINE
8
S-STRUCT
66
1
70
1
1001
AIAS
1000
cad-0010
0
VERTEX
8
S-STRUCT
10
0
20
0
30
0
0
VERTEX
8
S-STRUCT
10
0.3
20
0.3
30
0
0
SEQEND
0
LINE
8
A-DIMS
10
0
20
0
30
0
11
4
21
0
31
0
1001
AIAS
1000
cad-0011
0
LINE
8
A-DIMS
10
0
20
0
30
0
11
4
21
0
31
0
1001
AIAS
1000
cad-0012
0
LINE
8
A-DIMS
10
0
20
0
30
0
11
4
21
0
31
0
1001
AIAS
1000
cad-0013
0
ENDSEC
0
EOF
